<mxfile host="Electron" modified="2024-01-24T13:39:28.671Z" agent="Mozilla/5.0 (Windows NT 10.0; Win64; x64) AppleWebKit/537.36 (KHTML, like Gecko) draw.io/21.6.8 Chrome/114.0.5735.289 Electron/25.5.0 Safari/537.36" etag="XWExFHKe_Efgn0pPglmO" version="21.6.8" type="device">
  <diagram name="Page-1" id="MApo_q16_vX6nMRVA4rQ">
    <mxGraphModel dx="4300" dy="2780" grid="1" gridSize="10" guides="1" tooltips="1" connect="1" arrows="1" fold="1" page="1" pageScale="1" pageWidth="850" pageHeight="1100" math="0" shadow="0">
      <root>
        <mxCell id="0" />
        <mxCell id="1" parent="0" />
        <mxCell id="14ccnYZ_1jWqYZv687Fd-12" style="edgeStyle=orthogonalEdgeStyle;rounded=0;orthogonalLoop=1;jettySize=auto;html=1;exitX=1;exitY=0.5;exitDx=0;exitDy=-5;exitPerimeter=0;entryX=0;entryY=0.3;entryDx=0;entryDy=0;entryPerimeter=0;jumpSize=17;strokeWidth=3;" parent="1" source="14ccnYZ_1jWqYZv687Fd-1" target="14ccnYZ_1jWqYZv687Fd-3" edge="1">
          <mxGeometry relative="1" as="geometry" />
        </mxCell>
        <mxCell id="14ccnYZ_1jWqYZv687Fd-20" style="edgeStyle=orthogonalEdgeStyle;rounded=0;orthogonalLoop=1;jettySize=auto;html=1;exitX=0;exitY=0.21666666666666667;exitDx=0;exitDy=3;exitPerimeter=0;endArrow=none;endFill=0;startArrow=classic;startFill=1;jumpSize=17;strokeWidth=3;" parent="1" source="14ccnYZ_1jWqYZv687Fd-1" edge="1">
          <mxGeometry relative="1" as="geometry">
            <mxPoint x="-30" y="130" as="targetPoint" />
          </mxGeometry>
        </mxCell>
        <mxCell id="14ccnYZ_1jWqYZv687Fd-31" value="32" style="edgeLabel;html=1;align=center;verticalAlign=middle;resizable=0;points=[];" parent="14ccnYZ_1jWqYZv687Fd-20" vertex="1" connectable="0">
          <mxGeometry x="0.6275" y="-1" relative="1" as="geometry">
            <mxPoint x="-11" as="offset" />
          </mxGeometry>
        </mxCell>
        <mxCell id="14ccnYZ_1jWqYZv687Fd-1" value="Mux" style="shadow=0;dashed=0;align=center;html=1;strokeWidth=1;shape=mxgraph.electrical.abstract.mux2;whiteSpace=wrap;" parent="1" vertex="1">
          <mxGeometry x="10" y="250" width="80" height="120" as="geometry" />
        </mxCell>
        <mxCell id="14ccnYZ_1jWqYZv687Fd-13" style="edgeStyle=orthogonalEdgeStyle;rounded=0;orthogonalLoop=1;jettySize=auto;html=1;exitX=1;exitY=0.5;exitDx=0;exitDy=-5;exitPerimeter=0;entryX=0;entryY=0.3;entryDx=0;entryDy=0;entryPerimeter=0;jumpSize=17;strokeWidth=3;" parent="1" source="14ccnYZ_1jWqYZv687Fd-2" target="14ccnYZ_1jWqYZv687Fd-4" edge="1">
          <mxGeometry relative="1" as="geometry" />
        </mxCell>
        <mxCell id="14ccnYZ_1jWqYZv687Fd-21" style="edgeStyle=orthogonalEdgeStyle;rounded=0;orthogonalLoop=1;jettySize=auto;html=1;exitX=0;exitY=0.21666666666666667;exitDx=0;exitDy=3;exitPerimeter=0;endArrow=none;endFill=0;startArrow=classic;startFill=1;jumpSize=17;strokeWidth=3;" parent="1" source="14ccnYZ_1jWqYZv687Fd-2" edge="1">
          <mxGeometry relative="1" as="geometry">
            <mxPoint x="230" y="120" as="targetPoint" />
          </mxGeometry>
        </mxCell>
        <mxCell id="14ccnYZ_1jWqYZv687Fd-33" value="32" style="edgeLabel;html=1;align=center;verticalAlign=middle;resizable=0;points=[];" parent="14ccnYZ_1jWqYZv687Fd-21" vertex="1" connectable="0">
          <mxGeometry x="0.5648" y="-1" relative="1" as="geometry">
            <mxPoint x="-11" as="offset" />
          </mxGeometry>
        </mxCell>
        <mxCell id="pIvxz-K7B6osAKBqjWwv-2" style="edgeStyle=none;rounded=0;orthogonalLoop=1;jettySize=auto;html=1;exitX=0.375;exitY=1;exitDx=10;exitDy=0;exitPerimeter=0;entryX=0.375;entryY=1;entryDx=10;entryDy=0;entryPerimeter=0;endArrow=none;endFill=0;fillColor=#f8cecc;strokeColor=#b85450;jumpSize=17;strokeWidth=3;" parent="1" source="14ccnYZ_1jWqYZv687Fd-2" target="14ccnYZ_1jWqYZv687Fd-1" edge="1">
          <mxGeometry relative="1" as="geometry">
            <Array as="points">
              <mxPoint x="50" y="390" />
            </Array>
          </mxGeometry>
        </mxCell>
        <mxCell id="14ccnYZ_1jWqYZv687Fd-2" value="Mux" style="shadow=0;dashed=0;align=center;html=1;strokeWidth=1;shape=mxgraph.electrical.abstract.mux2;whiteSpace=wrap;" parent="1" vertex="1">
          <mxGeometry x="290" y="270" width="80" height="120" as="geometry" />
        </mxCell>
        <mxCell id="14ccnYZ_1jWqYZv687Fd-14" style="edgeStyle=orthogonalEdgeStyle;rounded=0;orthogonalLoop=1;jettySize=auto;html=1;exitX=1;exitY=0.3;exitDx=0;exitDy=0;exitPerimeter=0;entryX=0.5;entryY=0;entryDx=0;entryDy=0;entryPerimeter=0;jumpSize=17;strokeWidth=3;" parent="1" source="14ccnYZ_1jWqYZv687Fd-3" target="14ccnYZ_1jWqYZv687Fd-5" edge="1">
          <mxGeometry relative="1" as="geometry" />
        </mxCell>
        <mxCell id="pIvxz-K7B6osAKBqjWwv-6" style="edgeStyle=none;rounded=0;orthogonalLoop=1;jettySize=auto;html=1;exitX=0;exitY=0.7;exitDx=0;exitDy=0;exitPerimeter=0;endArrow=none;endFill=0;fillColor=#f8cecc;strokeColor=#b85450;jumpSize=17;strokeWidth=3;startArrow=classic;startFill=1;" parent="1" source="14ccnYZ_1jWqYZv687Fd-3" edge="1">
          <mxGeometry relative="1" as="geometry">
            <mxPoint x="-340" y="531.1111111111111" as="targetPoint" />
          </mxGeometry>
        </mxCell>
        <mxCell id="pIvxz-K7B6osAKBqjWwv-8" style="edgeStyle=none;rounded=0;orthogonalLoop=1;jettySize=auto;html=1;exitX=0.5;exitY=0;exitDx=0;exitDy=0;exitPerimeter=0;endArrow=none;endFill=0;fillColor=#f8cecc;strokeColor=#b85450;jumpSize=17;strokeWidth=3;" parent="1" source="14ccnYZ_1jWqYZv687Fd-3" edge="1">
          <mxGeometry relative="1" as="geometry">
            <mxPoint x="-853.3333333333334" y="440" as="targetPoint" />
            <Array as="points">
              <mxPoint x="200" y="440" />
            </Array>
          </mxGeometry>
        </mxCell>
        <mxCell id="14ccnYZ_1jWqYZv687Fd-3" value="" style="verticalLabelPosition=bottom;shadow=0;dashed=0;align=center;html=1;verticalAlign=top;shape=mxgraph.electrical.logic_gates.d_type_rs_flip-flop;" parent="1" vertex="1">
          <mxGeometry x="150" y="460" width="100" height="100" as="geometry" />
        </mxCell>
        <mxCell id="14ccnYZ_1jWqYZv687Fd-15" style="edgeStyle=orthogonalEdgeStyle;rounded=0;orthogonalLoop=1;jettySize=auto;html=1;exitX=1;exitY=0.3;exitDx=0;exitDy=0;exitPerimeter=0;entryX=0.5;entryY=0;entryDx=0;entryDy=0;entryPerimeter=0;jumpSize=17;strokeWidth=3;" parent="1" source="14ccnYZ_1jWqYZv687Fd-4" target="14ccnYZ_1jWqYZv687Fd-6" edge="1">
          <mxGeometry relative="1" as="geometry" />
        </mxCell>
        <mxCell id="pIvxz-K7B6osAKBqjWwv-7" style="edgeStyle=none;rounded=0;orthogonalLoop=1;jettySize=auto;html=1;exitX=0;exitY=0.7;exitDx=0;exitDy=0;exitPerimeter=0;endArrow=none;endFill=0;fillColor=#f8cecc;strokeColor=#b85450;jumpSize=17;strokeWidth=3;startArrow=classic;startFill=1;" parent="1" source="14ccnYZ_1jWqYZv687Fd-4" edge="1">
          <mxGeometry relative="1" as="geometry">
            <mxPoint x="-340" y="600" as="targetPoint" />
            <Array as="points">
              <mxPoint x="430" y="600" />
            </Array>
          </mxGeometry>
        </mxCell>
        <mxCell id="pIvxz-K7B6osAKBqjWwv-9" style="edgeStyle=none;rounded=0;orthogonalLoop=1;jettySize=auto;html=1;exitX=0.5;exitY=0;exitDx=0;exitDy=0;exitPerimeter=0;endArrow=none;endFill=0;fillColor=#f8cecc;strokeColor=#b85450;jumpSize=17;strokeWidth=3;" parent="1" source="14ccnYZ_1jWqYZv687Fd-4" edge="1">
          <mxGeometry relative="1" as="geometry">
            <mxPoint x="-980" y="450" as="targetPoint" />
            <Array as="points">
              <mxPoint x="480" y="450" />
            </Array>
          </mxGeometry>
        </mxCell>
        <mxCell id="14ccnYZ_1jWqYZv687Fd-4" value="" style="verticalLabelPosition=bottom;shadow=0;dashed=0;align=center;html=1;verticalAlign=top;shape=mxgraph.electrical.logic_gates.d_type_rs_flip-flop;" parent="1" vertex="1">
          <mxGeometry x="430" y="470" width="100" height="100" as="geometry" />
        </mxCell>
        <mxCell id="14ccnYZ_1jWqYZv687Fd-18" style="edgeStyle=orthogonalEdgeStyle;rounded=0;orthogonalLoop=1;jettySize=auto;html=1;exitX=0.5;exitY=1;exitDx=0;exitDy=0;exitPerimeter=0;entryX=0;entryY=0.65;entryDx=0;entryDy=3;entryPerimeter=0;jumpSize=17;strokeWidth=3;" parent="1" source="14ccnYZ_1jWqYZv687Fd-5" target="14ccnYZ_1jWqYZv687Fd-2" edge="1">
          <mxGeometry relative="1" as="geometry">
            <Array as="points">
              <mxPoint x="275" y="770" />
              <mxPoint x="750" y="770" />
              <mxPoint x="750" y="430" />
              <mxPoint x="230" y="430" />
              <mxPoint x="230" y="351" />
            </Array>
          </mxGeometry>
        </mxCell>
        <mxCell id="14ccnYZ_1jWqYZv687Fd-5" value="" style="verticalLabelPosition=bottom;shadow=0;dashed=0;align=center;html=1;verticalAlign=top;shape=mxgraph.electrical.abstract.summation_point;" parent="1" vertex="1">
          <mxGeometry x="250" y="640" width="50" height="50" as="geometry" />
        </mxCell>
        <mxCell id="14ccnYZ_1jWqYZv687Fd-17" style="edgeStyle=orthogonalEdgeStyle;rounded=0;orthogonalLoop=1;jettySize=auto;html=1;exitX=0.5;exitY=1;exitDx=0;exitDy=0;exitPerimeter=0;entryX=0;entryY=0.65;entryDx=0;entryDy=3;entryPerimeter=0;jumpSize=17;strokeWidth=3;" parent="1" source="14ccnYZ_1jWqYZv687Fd-6" target="14ccnYZ_1jWqYZv687Fd-1" edge="1">
          <mxGeometry relative="1" as="geometry">
            <Array as="points">
              <mxPoint x="665" y="740" />
              <mxPoint x="-30" y="740" />
              <mxPoint x="-30" y="331" />
            </Array>
          </mxGeometry>
        </mxCell>
        <mxCell id="14ccnYZ_1jWqYZv687Fd-6" value="" style="verticalLabelPosition=bottom;shadow=0;dashed=0;align=center;html=1;verticalAlign=top;shape=mxgraph.electrical.abstract.summation_point;" parent="1" vertex="1">
          <mxGeometry x="640" y="647" width="50" height="50" as="geometry" />
        </mxCell>
        <mxCell id="14ccnYZ_1jWqYZv687Fd-16" style="edgeStyle=orthogonalEdgeStyle;rounded=0;orthogonalLoop=1;jettySize=auto;html=1;exitX=1;exitY=0.5;exitDx=0;exitDy=0;exitPerimeter=0;entryX=0;entryY=0.5;entryDx=0;entryDy=0;entryPerimeter=0;jumpSize=17;strokeWidth=3;" parent="1" source="14ccnYZ_1jWqYZv687Fd-7" target="14ccnYZ_1jWqYZv687Fd-6" edge="1">
          <mxGeometry relative="1" as="geometry" />
        </mxCell>
        <mxCell id="pIvxz-K7B6osAKBqjWwv-16" style="edgeStyle=none;rounded=0;orthogonalLoop=1;jettySize=auto;html=1;exitX=0;exitY=0.5;exitDx=0;exitDy=0;exitPerimeter=0;endArrow=none;endFill=0;startArrow=classic;startFill=1;strokeWidth=3;" parent="1" source="14ccnYZ_1jWqYZv687Fd-7" edge="1">
          <mxGeometry relative="1" as="geometry">
            <mxPoint x="-460" y="-150" as="targetPoint" />
            <Array as="points">
              <mxPoint x="340" y="672" />
              <mxPoint x="340" y="750" />
              <mxPoint x="-460" y="750" />
            </Array>
          </mxGeometry>
        </mxCell>
        <mxCell id="14ccnYZ_1jWqYZv687Fd-7" value="" style="verticalLabelPosition=bottom;shadow=0;dashed=0;align=center;html=1;verticalAlign=top;shape=mxgraph.electrical.abstract.quantizer;" parent="1" vertex="1">
          <mxGeometry x="380" y="630" width="120" height="84" as="geometry" />
        </mxCell>
        <mxCell id="14ccnYZ_1jWqYZv687Fd-24" style="edgeStyle=orthogonalEdgeStyle;rounded=0;orthogonalLoop=1;jettySize=auto;html=1;entryX=0;entryY=0.3;entryDx=0;entryDy=0;entryPerimeter=0;strokeWidth=3;" parent="1" source="14ccnYZ_1jWqYZv687Fd-8" target="14ccnYZ_1jWqYZv687Fd-9" edge="1">
          <mxGeometry relative="1" as="geometry" />
        </mxCell>
        <mxCell id="14ccnYZ_1jWqYZv687Fd-8" value="" style="verticalLabelPosition=bottom;shadow=0;dashed=0;align=center;html=1;verticalAlign=top;shape=mxgraph.electrical.abstract.summation_point;" parent="1" vertex="1">
          <mxGeometry x="284" y="860" width="50" height="50" as="geometry" />
        </mxCell>
        <mxCell id="14ccnYZ_1jWqYZv687Fd-27" style="edgeStyle=orthogonalEdgeStyle;rounded=0;orthogonalLoop=1;jettySize=auto;html=1;exitX=1;exitY=0.3;exitDx=0;exitDy=0;exitPerimeter=0;entryX=0;entryY=0.5;entryDx=0;entryDy=0;entryPerimeter=0;jumpSize=17;strokeWidth=3;" parent="1" source="14ccnYZ_1jWqYZv687Fd-9" target="14ccnYZ_1jWqYZv687Fd-26" edge="1">
          <mxGeometry relative="1" as="geometry" />
        </mxCell>
        <mxCell id="pIvxz-K7B6osAKBqjWwv-10" style="edgeStyle=none;rounded=0;orthogonalLoop=1;jettySize=auto;html=1;exitX=0.5;exitY=0;exitDx=0;exitDy=0;exitPerimeter=0;endArrow=none;endFill=0;fillColor=#f8cecc;strokeColor=#b85450;jumpSize=17;strokeWidth=3;" parent="1" source="14ccnYZ_1jWqYZv687Fd-9" edge="1">
          <mxGeometry relative="1" as="geometry">
            <mxPoint x="-782.4242054332386" y="940.3636363636363" as="targetPoint" />
          </mxGeometry>
        </mxCell>
        <mxCell id="14ccnYZ_1jWqYZv687Fd-9" value="" style="verticalLabelPosition=bottom;shadow=0;dashed=0;align=center;html=1;verticalAlign=top;shape=mxgraph.electrical.logic_gates.d_type_rs_flip-flop;" parent="1" vertex="1">
          <mxGeometry x="334" y="940" width="100" height="100" as="geometry" />
        </mxCell>
        <mxCell id="14ccnYZ_1jWqYZv687Fd-28" style="edgeStyle=orthogonalEdgeStyle;rounded=0;orthogonalLoop=1;jettySize=auto;html=1;exitX=1;exitY=0.3;exitDx=0;exitDy=0;exitPerimeter=0;entryX=0;entryY=0.5;entryDx=0;entryDy=0;entryPerimeter=0;jumpSize=17;strokeWidth=3;" parent="1" source="14ccnYZ_1jWqYZv687Fd-10" target="14ccnYZ_1jWqYZv687Fd-11" edge="1">
          <mxGeometry relative="1" as="geometry" />
        </mxCell>
        <mxCell id="pIvxz-K7B6osAKBqjWwv-5" style="edgeStyle=none;rounded=0;orthogonalLoop=1;jettySize=auto;html=1;exitX=0;exitY=0.7;exitDx=0;exitDy=0;exitPerimeter=0;endArrow=none;endFill=0;fillColor=#f8cecc;strokeColor=#b85450;jumpSize=17;strokeWidth=3;startArrow=classic;startFill=1;" parent="1" source="14ccnYZ_1jWqYZv687Fd-10" edge="1">
          <mxGeometry relative="1" as="geometry">
            <mxPoint x="-340" y="990" as="targetPoint" />
            <Array as="points">
              <mxPoint x="480" y="980" />
              <mxPoint x="480" y="1110" />
              <mxPoint x="-340" y="1110" />
            </Array>
          </mxGeometry>
        </mxCell>
        <mxCell id="pIvxz-K7B6osAKBqjWwv-11" style="edgeStyle=none;rounded=0;orthogonalLoop=1;jettySize=auto;html=1;exitX=0.5;exitY=0;exitDx=0;exitDy=0;exitPerimeter=0;endArrow=none;endFill=0;fillColor=#f8cecc;strokeColor=#b85450;jumpSize=17;strokeWidth=3;" parent="1" source="14ccnYZ_1jWqYZv687Fd-10" edge="1">
          <mxGeometry relative="1" as="geometry">
            <mxPoint x="-926" y="910" as="targetPoint" />
          </mxGeometry>
        </mxCell>
        <mxCell id="14ccnYZ_1jWqYZv687Fd-10" value="" style="verticalLabelPosition=bottom;shadow=0;dashed=0;align=center;html=1;verticalAlign=top;shape=mxgraph.electrical.logic_gates.d_type_rs_flip-flop;" parent="1" vertex="1">
          <mxGeometry x="570" y="910" width="100" height="100" as="geometry" />
        </mxCell>
        <mxCell id="14ccnYZ_1jWqYZv687Fd-30" style="edgeStyle=orthogonalEdgeStyle;rounded=0;orthogonalLoop=1;jettySize=auto;html=1;exitX=1;exitY=0.5;exitDx=0;exitDy=0;exitPerimeter=0;jumpSize=17;strokeWidth=3;endArrow=none;endFill=0;" parent="1" source="14ccnYZ_1jWqYZv687Fd-11" edge="1">
          <mxGeometry relative="1" as="geometry">
            <mxPoint x="570" y="1310" as="targetPoint" />
            <Array as="points">
              <mxPoint x="690" y="1310" />
              <mxPoint x="580" y="1310" />
            </Array>
          </mxGeometry>
        </mxCell>
        <mxCell id="14ccnYZ_1jWqYZv687Fd-11" value="" style="verticalLabelPosition=bottom;shadow=0;dashed=0;align=center;html=1;verticalAlign=top;shape=mxgraph.electrical.abstract.controlled_amplifier;rotation=90;" parent="1" vertex="1">
          <mxGeometry x="670" y="1140" width="40" height="50" as="geometry" />
        </mxCell>
        <mxCell id="14ccnYZ_1jWqYZv687Fd-22" style="edgeStyle=orthogonalEdgeStyle;rounded=0;orthogonalLoop=1;jettySize=auto;html=1;endArrow=none;endFill=0;startArrow=classic;startFill=1;jumpSize=17;strokeWidth=3;" parent="1" edge="1">
          <mxGeometry relative="1" as="geometry">
            <mxPoint x="530" y="770" as="targetPoint" />
            <mxPoint x="570" y="940" as="sourcePoint" />
          </mxGeometry>
        </mxCell>
        <mxCell id="14ccnYZ_1jWqYZv687Fd-23" style="edgeStyle=orthogonalEdgeStyle;rounded=0;orthogonalLoop=1;jettySize=auto;html=1;endArrow=none;endFill=0;startArrow=classic;startFill=1;exitX=0.5;exitY=0;exitDx=0;exitDy=0;exitPerimeter=0;jumpSize=17;strokeWidth=3;" parent="1" source="14ccnYZ_1jWqYZv687Fd-8" edge="1">
          <mxGeometry relative="1" as="geometry">
            <mxPoint x="665" y="550" as="targetPoint" />
            <mxPoint x="310" y="840" as="sourcePoint" />
            <Array as="points">
              <mxPoint x="310" y="850" />
              <mxPoint x="310" y="820" />
              <mxPoint x="785" y="820" />
              <mxPoint x="785" y="550" />
            </Array>
          </mxGeometry>
        </mxCell>
        <mxCell id="14ccnYZ_1jWqYZv687Fd-25" style="edgeStyle=orthogonalEdgeStyle;rounded=0;orthogonalLoop=1;jettySize=auto;html=1;endArrow=none;endFill=0;startArrow=classic;startFill=1;jumpSize=17;strokeWidth=3;" parent="1" edge="1">
          <mxGeometry relative="1" as="geometry">
            <mxPoint x="275" y="710" as="targetPoint" />
            <mxPoint x="980" y="620" as="sourcePoint" />
            <Array as="points">
              <mxPoint x="921" y="620" />
              <mxPoint x="329" y="620" />
              <mxPoint x="329" y="710" />
            </Array>
          </mxGeometry>
        </mxCell>
        <mxCell id="14ccnYZ_1jWqYZv687Fd-29" style="edgeStyle=orthogonalEdgeStyle;rounded=0;orthogonalLoop=1;jettySize=auto;html=1;exitX=1;exitY=0.5;exitDx=0;exitDy=0;exitPerimeter=0;jumpSize=17;strokeWidth=3;" parent="1" source="14ccnYZ_1jWqYZv687Fd-26" edge="1">
          <mxGeometry relative="1" as="geometry">
            <mxPoint x="580" y="1430" as="targetPoint" />
            <Array as="points">
              <mxPoint x="454" y="1310" />
              <mxPoint x="581" y="1310" />
              <mxPoint x="581" y="1430" />
            </Array>
          </mxGeometry>
        </mxCell>
        <mxCell id="14ccnYZ_1jWqYZv687Fd-26" value="" style="verticalLabelPosition=bottom;shadow=0;dashed=0;align=center;html=1;verticalAlign=top;shape=mxgraph.electrical.abstract.controlled_amplifier;rotation=90;" parent="1" vertex="1">
          <mxGeometry x="434" y="1150" width="40" height="50" as="geometry" />
        </mxCell>
        <mxCell id="14ccnYZ_1jWqYZv687Fd-32" value="" style="endArrow=none;html=1;rounded=0;" parent="1" edge="1">
          <mxGeometry width="50" height="50" relative="1" as="geometry">
            <mxPoint x="-34" y="170" as="sourcePoint" />
            <mxPoint x="-24" y="160" as="targetPoint" />
          </mxGeometry>
        </mxCell>
        <mxCell id="14ccnYZ_1jWqYZv687Fd-34" value="" style="endArrow=none;html=1;rounded=0;" parent="1" edge="1">
          <mxGeometry width="50" height="50" relative="1" as="geometry">
            <mxPoint x="225" y="179" as="sourcePoint" />
            <mxPoint x="235" y="169" as="targetPoint" />
          </mxGeometry>
        </mxCell>
        <mxCell id="pIvxz-K7B6osAKBqjWwv-1" value="" style="endArrow=none;html=1;rounded=0;edgeStyle=orthogonalEdgeStyle;fillColor=#f8cecc;strokeColor=#b85450;jumpSize=17;strokeWidth=3;" parent="1" edge="1">
          <mxGeometry width="50" height="50" relative="1" as="geometry">
            <mxPoint x="50" y="370" as="sourcePoint" />
            <mxPoint x="-220" y="-140" as="targetPoint" />
          </mxGeometry>
        </mxCell>
        <mxCell id="pIvxz-K7B6osAKBqjWwv-4" value="" style="edgeStyle=none;orthogonalLoop=1;jettySize=auto;html=1;rounded=0;entryX=0;entryY=0.7;entryDx=0;entryDy=0;entryPerimeter=0;endArrow=classic;endFill=1;fillColor=#f8cecc;strokeColor=#b85450;jumpSize=17;strokeWidth=3;startArrow=none;startFill=0;" parent="1" target="14ccnYZ_1jWqYZv687Fd-9" edge="1">
          <mxGeometry width="100" relative="1" as="geometry">
            <mxPoint x="-340" y="-150" as="sourcePoint" />
            <mxPoint x="-330" y="540" as="targetPoint" />
            <Array as="points">
              <mxPoint x="-340" y="420" />
              <mxPoint x="-340" y="1010" />
            </Array>
          </mxGeometry>
        </mxCell>
        <mxCell id="pIvxz-K7B6osAKBqjWwv-12" value="" style="endArrow=none;html=1;rounded=0;exitX=0.6;exitY=0.95;exitDx=0;exitDy=0;exitPerimeter=0;startArrow=classic;startFill=1;fillColor=#f8cecc;strokeColor=#b85450;jumpSize=17;strokeWidth=3;" parent="1" source="14ccnYZ_1jWqYZv687Fd-26" edge="1">
          <mxGeometry width="50" height="50" relative="1" as="geometry">
            <mxPoint x="-320" y="490" as="sourcePoint" />
            <mxPoint x="-560" y="-160" as="targetPoint" />
            <Array as="points">
              <mxPoint x="-560" y="1175" />
            </Array>
          </mxGeometry>
        </mxCell>
        <mxCell id="pIvxz-K7B6osAKBqjWwv-13" value="" style="endArrow=none;html=1;rounded=0;exitX=0.6;exitY=0.95;exitDx=0;exitDy=0;exitPerimeter=0;endFill=0;startArrow=classic;startFill=1;fillColor=#f8cecc;strokeColor=#b85450;jumpSize=20;endSize=10;strokeWidth=3;" parent="1" source="14ccnYZ_1jWqYZv687Fd-11" edge="1">
          <mxGeometry width="50" height="50" relative="1" as="geometry">
            <mxPoint x="370" y="1060" as="sourcePoint" />
            <mxPoint x="270" y="1180" as="targetPoint" />
            <Array as="points">
              <mxPoint x="600" y="1169" />
              <mxPoint x="600" y="1240" />
              <mxPoint x="270" y="1240" />
            </Array>
          </mxGeometry>
        </mxCell>
        <mxCell id="pIvxz-K7B6osAKBqjWwv-14" value="" style="endArrow=classic;html=1;rounded=0;entryX=0;entryY=0.5;entryDx=0;entryDy=0;entryPerimeter=0;startArrow=none;startFill=0;endFill=1;jumpSize=17;strokeWidth=3;" parent="1" target="14ccnYZ_1jWqYZv687Fd-8" edge="1">
          <mxGeometry width="50" height="50" relative="1" as="geometry">
            <mxPoint x="-740" y="800" as="sourcePoint" />
            <mxPoint x="-260" y="800" as="targetPoint" />
            <Array as="points">
              <mxPoint x="-140" y="800" />
              <mxPoint x="-140" y="885" />
            </Array>
          </mxGeometry>
        </mxCell>
        <mxCell id="pIvxz-K7B6osAKBqjWwv-15" value="" style="endArrow=classic;html=1;rounded=0;entryX=0;entryY=0.5;entryDx=0;entryDy=0;entryPerimeter=0;startArrow=none;startFill=0;endFill=1;jumpSize=17;strokeWidth=3;" parent="1" target="14ccnYZ_1jWqYZv687Fd-5" edge="1">
          <mxGeometry width="50" height="50" relative="1" as="geometry">
            <mxPoint x="-140" y="800" as="sourcePoint" />
            <mxPoint x="-220" y="780" as="targetPoint" />
            <Array as="points">
              <mxPoint x="-140" y="665" />
            </Array>
          </mxGeometry>
        </mxCell>
        <mxCell id="pIvxz-K7B6osAKBqjWwv-17" value="Load reg 1" style="text;html=1;align=center;verticalAlign=middle;resizable=0;points=[];autosize=1;strokeColor=none;fillColor=none;strokeWidth=5;fontSize=19;" parent="1" vertex="1">
          <mxGeometry x="-965" y="403" width="110" height="40" as="geometry" />
        </mxCell>
        <mxCell id="pIvxz-K7B6osAKBqjWwv-18" value="Load reg 2" style="text;html=1;align=center;verticalAlign=middle;resizable=0;points=[];autosize=1;strokeColor=none;fillColor=none;strokeWidth=5;fontSize=19;" parent="1" vertex="1">
          <mxGeometry x="-1090" y="430" width="110" height="40" as="geometry" />
        </mxCell>
        <mxCell id="pIvxz-K7B6osAKBqjWwv-19" value="Load reg 3" style="text;html=1;align=center;verticalAlign=middle;resizable=0;points=[];autosize=1;strokeColor=none;fillColor=none;strokeWidth=5;fontSize=19;" parent="1" vertex="1">
          <mxGeometry x="-900" y="920" width="110" height="40" as="geometry" />
        </mxCell>
        <mxCell id="pIvxz-K7B6osAKBqjWwv-20" value="Load reg 4" style="text;html=1;align=center;verticalAlign=middle;resizable=0;points=[];autosize=1;strokeColor=none;fillColor=none;strokeWidth=5;fontSize=19;" parent="1" vertex="1">
          <mxGeometry x="-1040" y="890" width="110" height="40" as="geometry" />
        </mxCell>
        <mxCell id="pIvxz-K7B6osAKBqjWwv-21" value="enable output" style="text;html=1;align=center;verticalAlign=middle;resizable=0;points=[];autosize=1;strokeColor=none;fillColor=none;strokeWidth=5;fontSize=19;" parent="1" vertex="1">
          <mxGeometry x="-660" y="-220" width="140" height="40" as="geometry" />
        </mxCell>
        <mxCell id="pIvxz-K7B6osAKBqjWwv-22" value="S-boxes" style="text;html=1;align=center;verticalAlign=middle;resizable=0;points=[];autosize=1;strokeColor=none;fillColor=none;strokeWidth=5;fontSize=19;" parent="1" vertex="1">
          <mxGeometry x="-480" y="-210" width="90" height="40" as="geometry" />
        </mxCell>
        <mxCell id="pIvxz-K7B6osAKBqjWwv-24" value="P-box" style="text;html=1;align=center;verticalAlign=middle;resizable=0;points=[];autosize=1;strokeColor=none;fillColor=none;strokeWidth=5;fontSize=19;" parent="1" vertex="1">
          <mxGeometry x="-850" y="780" width="70" height="40" as="geometry" />
        </mxCell>
        <mxCell id="pIvxz-K7B6osAKBqjWwv-25" value="clock" style="text;html=1;align=center;verticalAlign=middle;resizable=0;points=[];autosize=1;strokeColor=none;fillColor=none;strokeWidth=5;fontSize=19;" parent="1" vertex="1">
          <mxGeometry x="-380" y="-210" width="70" height="40" as="geometry" />
        </mxCell>
        <mxCell id="pIvxz-K7B6osAKBqjWwv-27" value="Mux_sel" style="text;html=1;align=center;verticalAlign=middle;resizable=0;points=[];autosize=1;strokeColor=none;fillColor=none;strokeWidth=5;fontSize=19;" parent="1" vertex="1">
          <mxGeometry x="-260" y="-210" width="90" height="40" as="geometry" />
        </mxCell>
        <mxCell id="pIvxz-K7B6osAKBqjWwv-28" value="database" style="text;html=1;align=center;verticalAlign=middle;resizable=0;points=[];autosize=1;strokeColor=none;fillColor=none;strokeWidth=5;fontSize=26;" parent="1" vertex="1">
          <mxGeometry x="1005" y="600" width="130" height="40" as="geometry" />
        </mxCell>
        <mxCell id="pIvxz-K7B6osAKBqjWwv-29" value="output" style="text;html=1;align=center;verticalAlign=middle;resizable=0;points=[];autosize=1;strokeColor=none;fillColor=none;strokeWidth=5;fontSize=27;" parent="1" vertex="1">
          <mxGeometry x="530" y="1455" width="100" height="50" as="geometry" />
        </mxCell>
        <mxCell id="73_fsfGwEEvA5iHBJWcW-3" style="edgeStyle=orthogonalEdgeStyle;rounded=0;orthogonalLoop=1;jettySize=auto;html=1;exitX=0;exitY=0.65;exitDx=0;exitDy=3;exitPerimeter=0;endArrow=none;endFill=0;startArrow=classic;startFill=1;strokeWidth=3;" parent="1" source="73_fsfGwEEvA5iHBJWcW-1" edge="1">
          <mxGeometry relative="1" as="geometry">
            <mxPoint x="-60" y="-240" as="targetPoint" />
          </mxGeometry>
        </mxCell>
        <mxCell id="73_fsfGwEEvA5iHBJWcW-6" style="edgeStyle=orthogonalEdgeStyle;rounded=0;orthogonalLoop=1;jettySize=auto;html=1;exitX=1;exitY=0.5;exitDx=0;exitDy=-5;exitPerimeter=0;endArrow=none;endFill=0;strokeWidth=3;" parent="1" source="73_fsfGwEEvA5iHBJWcW-1" edge="1">
          <mxGeometry relative="1" as="geometry">
            <mxPoint x="-30" y="140" as="targetPoint" />
          </mxGeometry>
        </mxCell>
        <mxCell id="73_fsfGwEEvA5iHBJWcW-1" value="enc_&lt;br&gt;mux" style="shadow=0;dashed=0;align=center;html=1;strokeWidth=1;shape=mxgraph.electrical.abstract.mux2;whiteSpace=wrap;" parent="1" vertex="1">
          <mxGeometry x="50" y="-100" width="80" height="120" as="geometry" />
        </mxCell>
        <mxCell id="73_fsfGwEEvA5iHBJWcW-2" value="&lt;font style=&quot;font-size: 18px;&quot;&gt;0&lt;/font&gt;" style="text;html=1;align=center;verticalAlign=middle;resizable=0;points=[];autosize=1;strokeColor=none;fillColor=none;" parent="1" vertex="1">
          <mxGeometry x="10" y="-95" width="30" height="40" as="geometry" />
        </mxCell>
        <mxCell id="73_fsfGwEEvA5iHBJWcW-4" value="&lt;font style=&quot;font-size: 18px;&quot;&gt;plaintext&lt;/font&gt;" style="text;html=1;align=center;verticalAlign=middle;resizable=0;points=[];autosize=1;strokeColor=none;fillColor=none;" parent="1" vertex="1">
          <mxGeometry x="-110" y="-300" width="90" height="40" as="geometry" />
        </mxCell>
        <mxCell id="73_fsfGwEEvA5iHBJWcW-7" value="" style="endArrow=none;html=1;rounded=0;strokeWidth=3;" parent="1" edge="1">
          <mxGeometry width="50" height="50" relative="1" as="geometry">
            <mxPoint x="150" y="80" as="sourcePoint" />
            <mxPoint x="230" y="120" as="targetPoint" />
            <Array as="points">
              <mxPoint x="230" y="80" />
            </Array>
          </mxGeometry>
        </mxCell>
        <mxCell id="73_fsfGwEEvA5iHBJWcW-8" value="(0-31)" style="text;html=1;align=center;verticalAlign=middle;resizable=0;points=[];autosize=1;strokeColor=none;fillColor=none;" parent="1" vertex="1">
          <mxGeometry x="20" y="78" width="60" height="30" as="geometry" />
        </mxCell>
        <mxCell id="73_fsfGwEEvA5iHBJWcW-9" value="(32-64)" style="text;html=1;align=center;verticalAlign=middle;resizable=0;points=[];autosize=1;strokeColor=none;fillColor=none;" parent="1" vertex="1">
          <mxGeometry x="160" y="78" width="60" height="30" as="geometry" />
        </mxCell>
        <mxCell id="mJjl416US21T6Qxjv-FP-1" value="&lt;font style=&quot;font-size: 6px;&quot;&gt;0&lt;/font&gt;" style="text;html=1;align=center;verticalAlign=middle;resizable=0;points=[];autosize=1;strokeColor=none;fillColor=none;" vertex="1" parent="1">
          <mxGeometry x="51" y="-35" width="30" height="30" as="geometry" />
        </mxCell>
        <mxCell id="mJjl416US21T6Qxjv-FP-2" value="&lt;font style=&quot;font-size: 6px;&quot;&gt;0&lt;/font&gt;" style="text;html=1;align=center;verticalAlign=middle;resizable=0;points=[];autosize=1;strokeColor=none;fillColor=none;" vertex="1" parent="1">
          <mxGeometry x="52" y="-87" width="30" height="30" as="geometry" />
        </mxCell>
        <mxCell id="mJjl416US21T6Qxjv-FP-3" value="&lt;font style=&quot;font-size: 6px;&quot;&gt;01&lt;/font&gt;" style="text;html=1;align=center;verticalAlign=middle;resizable=0;points=[];autosize=1;strokeColor=none;fillColor=none;" vertex="1" parent="1">
          <mxGeometry x="51" y="-61" width="30" height="30" as="geometry" />
        </mxCell>
        <mxCell id="mJjl416US21T6Qxjv-FP-4" value="" style="endArrow=classic;html=1;rounded=0;strokeWidth=3;" edge="1" parent="1">
          <mxGeometry width="50" height="50" relative="1" as="geometry">
            <mxPoint x="454" y="1118" as="sourcePoint" />
            <mxPoint x="60" y="-40" as="targetPoint" />
            <Array as="points">
              <mxPoint x="900" y="1118" />
              <mxPoint x="900" y="-180" />
              <mxPoint y="-180" />
              <mxPoint y="-40" />
            </Array>
          </mxGeometry>
        </mxCell>
        <mxCell id="mJjl416US21T6Qxjv-FP-5" value="" style="endArrow=none;html=1;rounded=0;strokeWidth=3;" edge="1" parent="1">
          <mxGeometry width="50" height="50" relative="1" as="geometry">
            <mxPoint x="690" y="1050" as="sourcePoint" />
            <mxPoint x="770" y="1120" as="targetPoint" />
            <Array as="points">
              <mxPoint x="770" y="1050" />
            </Array>
          </mxGeometry>
        </mxCell>
        <mxCell id="mJjl416US21T6Qxjv-FP-6" value="" style="ellipse;whiteSpace=wrap;html=1;fillColor=#000000;" vertex="1" parent="1">
          <mxGeometry x="765" y="1114" width="10" height="10" as="geometry" />
        </mxCell>
        <mxCell id="mJjl416US21T6Qxjv-FP-9" value="" style="endArrow=none;html=1;rounded=0;entryX=0.375;entryY=1;entryDx=10;entryDy=0;entryPerimeter=0;strokeWidth=2;strokeColor=#CC0000;" edge="1" parent="1" target="73_fsfGwEEvA5iHBJWcW-1">
          <mxGeometry width="50" height="50" relative="1" as="geometry">
            <mxPoint x="-910" y="-160" as="sourcePoint" />
            <mxPoint x="-320" y="-40" as="targetPoint" />
            <Array as="points">
              <mxPoint x="-910" y="20" />
              <mxPoint x="-740" y="20" />
            </Array>
          </mxGeometry>
        </mxCell>
        <mxCell id="mJjl416US21T6Qxjv-FP-10" value="&lt;font style=&quot;font-size: 18px;&quot;&gt;enc_mux_sel&lt;/font&gt;" style="text;html=1;align=center;verticalAlign=middle;resizable=0;points=[];autosize=1;strokeColor=none;fillColor=none;" vertex="1" parent="1">
          <mxGeometry x="-980" y="-220" width="130" height="40" as="geometry" />
        </mxCell>
      </root>
    </mxGraphModel>
  </diagram>
</mxfile>
